<?xml version="1.0" standalone="no"?>
<!DOCTYPE svg PUBLIC "-//W3C//DTD SVG 20010904//EN"
 "http://www.w3.org/TR/2001/REC-SVG-20010904/DTD/svg10.dtd">
<svg version="1.0" xmlns="http://www.w3.org/2000/svg"
 width="512.000000pt" height="512.000000pt" viewBox="0 0 512.000000 512.000000"
 preserveAspectRatio="xMidYMid meet">
<metadata>
Created by potrace 1.14, written by Peter Selinger 2001-2017
</metadata>
<g transform="translate(0.000000,512.000000) scale(0.100000,-0.100000)"
fill="#000000" stroke="none">
<path d="M2498 5068 c-34 -29 -65 -55 -68 -58 -3 -3 -27 -23 -55 -45 -27 -22
-59 -47 -70 -57 -24 -20 -155 -127 -210 -173 -22 -18 -98 -81 -170 -140 -132
-109 -160 -132 -275 -226 -36 -29 -67 -55 -70 -58 -3 -4 -39 -33 -80 -66 -41
-33 -77 -62 -80 -65 -3 -3 -68 -57 -145 -120 -77 -62 -156 -128 -175 -144 -20
-17 -55 -47 -79 -66 -24 -19 -101 -82 -171 -140 -69 -58 -146 -121 -170 -140
-24 -19 -102 -84 -174 -143 -72 -60 -173 -143 -225 -185 -51 -42 -101 -84
-111 -92 -10 -8 -51 -42 -90 -75 l-73 -60 302 -3 301 -2 0 -1505 0 -1505 1950
0 1950 0 0 1505 0 1505 303 0 302 0 -36 33 c-21 17 -45 39 -55 47 -27 22 -755
621 -779 642 -11 9 -49 40 -85 70 -36 30 -157 130 -270 223 -228 188 -375 309
-405 334 -11 9 -72 59 -135 111 -63 52 -124 102 -135 112 -11 9 -60 50 -110
90 -191 157 -401 331 -425 352 -14 11 -46 38 -72 58 l-46 38 -64 -52z m237
-478 c94 -77 179 -148 190 -158 11 -10 56 -47 100 -82 44 -36 91 -75 105 -87
14 -11 108 -90 210 -173 102 -84 196 -162 210 -174 14 -11 50 -41 80 -66 30
-25 57 -47 60 -50 3 -3 39 -32 80 -65 41 -33 77 -63 80 -66 4 -4 328 -272 414
-341 21 -17 21 -18 -16 -18 l-38 0 0 -1505 0 -1505 -1650 0 -1650 0 0 1504 0
1505 -34 3 c-33 3 -29 7 167 168 110 91 266 219 346 286 195 160 686 565 944
776 114 94 210 174 213 179 3 5 8 9 12 9 4 0 84 -63 177 -140z"/>
<path d="M2335 3303 c-39 -3 -240 -32 -260 -37 -5 -1 -37 -8 -70 -15 -76 -17
-217 -67 -275 -99 -102 -56 -163 -116 -197 -195 l-22 -52 2 -955 2 -955 22
-45 c85 -169 334 -278 743 -326 136 -17 546 -9 653 12 12 2 39 6 62 10 78 11
203 43 285 73 143 53 237 118 292 204 l33 52 3 960 c2 690 0 972 -8 1001 -16
57 -74 130 -140 175 -89 62 -265 129 -400 153 -19 3 -46 8 -60 11 -14 3 -45 8
-70 11 -25 3 -56 8 -70 10 -32 6 -472 12 -525 7z m510 -307 c107 -17 216 -39
270 -56 82 -25 175 -67 175 -79 0 -11 -84 -52 -155 -74 -86 -28 -201 -50 -325
-64 -86 -10 -417 -10 -505 0 -190 22 -369 70 -460 124 l-20 12 20 15 c19 14
34 21 142 60 57 21 223 54 313 62 41 3 77 8 79 10 6 5 423 -4 466 -10z m-875
-517 c65 -17 138 -31 230 -44 182 -27 592 -26 735 1 10 2 37 6 60 10 22 3 60
10 85 16 25 5 56 12 69 14 13 3 55 16 93 29 l68 24 0 -128 c0 -143 1 -141 -80
-178 -52 -24 -168 -61 -214 -68 -17 -3 -53 -10 -81 -15 -96 -18 -151 -22 -345
-25 -173 -3 -230 0 -371 19 -122 16 -290 66 -359 106 l-45 26 -3 132 -3 131
43 -15 c24 -8 77 -24 118 -35z m-118 -563 c64 -27 231 -66 353 -82 22 -3 54
-7 70 -10 57 -10 460 -12 530 -4 39 5 92 12 120 15 82 9 241 45 315 70 l70 24
0 -128 c0 -143 0 -142 -77 -178 -148 -71 -418 -112 -708 -108 -110 1 -209 5
-220 8 -11 2 -49 8 -85 13 -78 9 -57 5 -166 33 -49 12 -124 39 -165 59 l-74
37 -3 133 c-1 72 -1 132 1 132 3 0 20 -6 39 -14z m138 -641 c52 -13 115 -27
140 -30 25 -3 52 -8 60 -10 74 -19 507 -27 650 -11 160 17 339 55 433 91 l37
15 0 -129 c0 -144 0 -143 -80 -179 -51 -23 -167 -60 -214 -67 -17 -3 -53 -10
-81 -15 -105 -19 -136 -21 -335 -25 -242 -4 -391 11 -557 55 -91 25 -147 47
-195 77 l-38 23 0 130 0 129 43 -15 c23 -8 85 -26 137 -39z"/>
</g>
</svg>
